<svg width="512" height="512" viewBox="0 0 512 512" xmlns="http://www.w3.org/2000/svg">
  <defs>
    <linearGradient id="grad1" x1="0%" y1="0%" x2="100%" y2="100%">
      <stop offset="0%" style="stop-color:#25d366;stop-opacity:1" />
      <stop offset="100%" style="stop-color:#128c7e;stop-opacity:1" />
    </linearGradient>
  </defs>
  
  <!-- Background Circle -->
  <circle cx="256" cy="256" r="240" fill="url(#grad1)" stroke="#fff" stroke-width="8"/>
  
  <!-- Chat Bubble -->
  <path d="M 120 180 Q 120 160 140 160 L 320 160 Q 340 160 340 180 L 340 280 Q 340 300 320 300 L 200 300 L 160 340 L 160 280 Q 160 260 180 260 L 300 260 L 300 180 L 140 180 Q 120 180 120 200 Z" fill="#fff"/>
  
  <!-- Video Camera -->
  <rect x="200" y="200" width="80" height="60" rx="8" fill="#25d366"/>
  <circle cx="240" cy="230" r="15" fill="#fff"/>
  <polygon points="220,200 200,210 200,250 220,260" fill="#25d366"/>
  
  <!-- Audio Waves -->
  <path d="M 100 120 Q 80 100 100 80 Q 120 60 140 80 Q 160 100 140 120 Q 120 140 100 120 Z" fill="#fff" opacity="0.8"/>
  <path d="M 120 100 Q 110 90 120 80 Q 130 70 140 80 Q 150 90 140 100 Q 130 110 120 100 Z" fill="#25d366"/>
</svg>
